<?xml version="1.0" encoding="utf-8"?>

<!DOCTYPE svg PUBLIC "-//W3C//DTD SVG 1.1//EN" "http://www.w3.org/Graphics/SVG/1.1/DTD/svg11.dtd">
<!-- Uploaded to: SVG Repo, www.svgrepo.com, Generator: SVG Repo Mixer Tools -->
<svg version="1.1" id="Layer_1" xmlns="http://www.w3.org/2000/svg" xmlns:xlink="http://www.w3.org/1999/xlink" 
	 width="800px" height="800px" viewBox="0 0 64 64" enable-background="new 0 0 64 64" xml:space="preserve">
<path fill="none" stroke="#000000" stroke-width="2" stroke-miterlimit="10" d="M9,5c0,0,0-4,6-4c5,0,4,10,4,10v29"/>
<path fill="none" stroke="#000000" stroke-width="2" stroke-miterlimit="10" d="M19,11c0,0,0-10,7-10s7,10,7,10v29c0,0-1,14,15,14"
	/>
<path fill="none" stroke="#000000" stroke-width="2" stroke-miterlimit="10" d="M48,40c-3,0-12,1-12,12c0,1,1,11-12,11"/>
<path fill="none" stroke="#000000" stroke-width="2" stroke-miterlimit="10" d="M48,54c3.866,0,7-3.134,7-7s-3.134-7-7-7"/>
</svg>